<svg xmlns="http://www.w3.org/2000/svg" viewBox="0 0 1200 800">
  <!-- Background -->
  <rect width="1200" height="800" fill="#3D3D8A"/>
  
  <!-- Header Navigation -->
  <text x="50" y="60" font-family="Arial" font-size="30" font-weight="bold" fill="white">ME</text>
  
  <!-- Navigation Links -->
  <rect x="850" y="30" width="100" height="40" rx="20" ry="20" fill="rgba(255,255,255,0.2)" stroke="none"/>
  <text x="900" y="57" font-family="Arial" font-size="16" text-anchor="middle" fill="white">Search</text>
  
  <rect x="960" y="30" width="130" height="40" rx="20" ry="20" fill="rgba(255,255,255,0.2)" stroke="none"/>
  <text x="1025" y="57" font-family="Arial" font-size="16" text-anchor="middle" fill="white">Get Started</text>
  
  <rect x="1100" y="30" width="80" height="40" rx="20" ry="20" fill="rgba(255,255,255,0.2)" stroke="none"/>
  <text x="1140" y="57" font-family="Arial" font-size="16" text-anchor="middle" fill="white">About</text>
  
  <!-- Theme Toggle -->
  <circle cx="1180" cy="130" r="20" fill="rgba(255,255,255,0.2)" stroke="none"/>
  <text x="1180" y="136" font-family="Arial" font-size="18" text-anchor="middle" fill="white">☀</text>
  
  <!-- Music Note Icon -->
  <path d="M570 220 C580 200, 600 180, 600 180 C620 180, 640 200, 650 220 L650 320 C650 350, 620 370, 600 370 C580 370, 550 350, 550 320 L550 220" fill="none" stroke="white" stroke-width="6"/>
  <line x1="650" y1="220" x2="650" y2="130" stroke="white" stroke-width="6"/>
  <circle cx="650" cy="130" r="15" fill="white" stroke="white" stroke-width="3"/>
  
  <!-- Welcome Text -->
  <text x="600" y="450" font-family="Arial" font-size="50" text-anchor="middle" font-weight="bold" fill="white">Welcome to Music Explorer</text>
  
  <text x="600" y="520" font-family="Arial" font-size="24" text-anchor="middle" fill="white">Search for your favorite songs and listen to previews!</text>
  
  <!-- Search Bar -->
  <rect x="350" y="580" width="400" height="60" rx="30" ry="30" fill="rgba(255,255,255,0.8)" stroke="none"/>
  <text x="380" y="620" font-family="Arial" font-size="20" fill="#555">Search for songs...</text>
  
  <rect x="760" y="580" width="100" height="60" rx="30" ry="30" fill="#2A2A5A" stroke="none"/>
  <text x="810" y="620" font-family="Arial" font-size="20" text-anchor="middle" fill="white">Search</text>
  
  <!-- Footer -->
  <text x="600" y="750" font-family="Arial" font-size="16" text-anchor="middle" fill="white">Created by Aurimas Ransys - Powered by Deezer</text>
</svg>
